<svg id="SvgjsSvg1001" width="288" height="288" xmlns="http://www.w3.org/2000/svg" version="1.1" xmlns:xlink="http://www.w3.org/1999/xlink" xmlns:svgjs="http://svgjs.com/svgjs"><defs id="SvgjsDefs1002"></defs><g id="SvgjsG1008" transform="matrix(1,0,0,1,0,0)"><svg xmlns="http://www.w3.org/2000/svg" width="288" height="288" version="1.0" viewBox="0 0 512 512"><g transform="matrix(.1 0 0 -.1 0 512)" fill="#ffffff" class="color000 svgShape"><path d="M2400 5109 c-417 -74 -744 -368 -856 -769 -21 -77 -27 -124 -31 -246l-5 -151 -77 -6 c-228 -18 -436 -151 -538 -344 -71 -134 -74 -153 -118 -773
-13 -195 -38 -544 -55 -775 -17 -231 -37 -517 -45 -635 -8 -118 -25 -334 -36
-480 -22 -281 -20 -355 11 -457 58 -189 184 -332 364 -413 137 -63 62 -60
1551 -60 1511 0 1415 -4 1569 68 106 50 192 123 254 216 58 87 88 160 110 268
14 73 14 99 -12 440 -48 654 -81 1107 -131 1828 -42 600 -48 636 -104 747
-108 215 -310 351 -547 369 l-82 7 -5 151 c-4 122 -10 169 -31 246 -103 370
-383 645 -761 747 -102 28 -327 40 -425 22z m266 -259 c316 -40 582 -272 665
-580 12 -46 22 -124 26 -202 l6 -128 -798 0 -798 0 6 128 c4 78 14 156 26 202
91 339 394 576 751 589 20 0 72 -4 116 -9z m1059 -1181 c79 -14 150 -51 208
-108 47 -44 97 -128 110 -181 7 -29 28 -290 57 -700 11 -157 33 -474 50 -705
17 -231 37 -517 45 -635 8 -118 22 -307 31 -419 21 -264 17 -348 -18 -424 -39
-84 -114 -157 -201 -198 l-72 -34 -1370 0 -1370 0 -72 34 c-87 41 -162 114
-201 198 -35 76 -39 160 -18 424 9 112 23 301 31 419 8 118 28 404 45 635 17
231 39 548 50 705 29 409 50 671 57 700 31 132 161 254 303 286 74 17 2247 19
2335 3z" fill="#ffffff" class="color000 svgShape"></path><path d="M2764 3131 c-67 -41 -64 -12 -64 -579 0 -485 -1 -514 -17 -509 -10 4
-44 16 -77 27 -82 29 -204 36 -289 16 -183 -43 -334 -181 -387 -354 -27 -87
-27 -227 0 -314 71 -230 308 -387 551 -364 188 17 358 138 432 306 46 103 47
127 47 801 l0 640 23 -7 c12 -4 93 -42 179 -85 126 -63 167 -79 202 -79 108 0
165 138 89 214 -37 38 -587 306 -626 306 -18 0 -46 -9 -63 -19z m-221 -1319
c164 -72 204 -280 80 -413 -82 -88 -201 -109 -310 -53 -101 52 -150 142 -140
257 16 177 203 283 370 209z" fill="#ffffff" class="color000 svgShape"></path></g></svg></g></svg>